<svg xmlns="http://www.w3.org/2000/svg" viewBox="0 0 421.479 421.479"><path d="M371.967 36.248H49.513C22.211 36.248 0 58.459 0 85.761v247.571c0 15.816 12.244 28.817 27.749 30.046v14.353a7.5 7.5 0 0 0 7.5 7.5h47.997a7.5 7.5 0 0 0 7.5-7.5v-14.249h239.987v14.249a7.5 7.5 0 0 0 7.5 7.5h47.998a7.5 7.5 0 0 0 7.5-7.5v-14.353c15.505-1.229 27.748-14.23 27.748-30.046V85.761c0-27.302-22.21-49.513-49.512-49.513M75.746 370.231H42.749v-6.749h32.997zm302.985 0h-32.998v-6.749h32.998zm27.748-36.899c0 8.354-6.796 15.15-15.149 15.15H30.15c-8.354 0-15.15-6.796-15.15-15.15V85.761c0-19.03 15.482-34.513 34.513-34.513h322.454c19.03 0 34.513 15.482 34.513 34.513z"/><path d="M343.395 71.376H78.086c-19.075 0-34.594 15.519-34.594 34.594v146.542c0 19.075 15.519 34.594 34.594 34.594h32.272c13.626 0 26.023-8.038 31.583-20.478l6.725-15.048a19.62 19.62 0 0 1 17.89-11.599h88.369a19.62 19.62 0 0 1 17.888 11.599l6.727 15.048c5.561 12.439 17.958 20.477 31.583 20.477h32.272c19.075 0 34.594-15.519 34.594-34.594V105.97c-.001-19.075-15.519-34.594-34.594-34.594M58.492 171.741v-18.455h304.496v18.455zm304.496 15v18.455H58.492v-18.455zM58.492 138.286v-18.455h304.496v18.455zm19.594-51.91h265.309c10.419 0 18.941 8.182 19.536 18.455H58.55c.595-10.273 9.117-18.455 19.536-18.455m32.272 185.73H78.086c-10.42 0-18.942-8.183-19.536-18.457h72.762l-3.065 6.859a19.62 19.62 0 0 1-17.889 11.598m144.567-47.124h-88.369c-10.939 0-21.076 5.188-27.53 13.667H58.492v-18.453h304.496v18.453h-80.533c-6.453-8.479-16.592-13.667-27.53-13.667m88.47 47.124h-32.272a19.62 19.62 0 0 1-17.889-11.599l-3.065-6.858h72.763c-.595 10.275-9.117 18.457-19.537 18.457m-252.8 21.518c-12.437 0-22.555 10.118-22.555 22.555s10.118 22.555 22.555 22.555 22.555-10.118 22.555-22.555c-.001-12.437-10.119-22.555-22.555-22.555m0 30.11c-4.166 0-7.555-3.389-7.555-7.555s3.389-7.555 7.555-7.555 7.555 3.389 7.555 7.555c-.001 4.166-3.389 7.555-7.555 7.555m240.291-30.11c-12.438 0-22.556 10.118-22.556 22.555s10.118 22.555 22.556 22.555c12.437 0 22.555-10.118 22.555-22.555-.001-12.437-10.119-22.555-22.555-22.555m0 30.11c-4.166 0-7.556-3.389-7.556-7.555s3.39-7.555 7.556-7.555 7.555 3.389 7.555 7.555c-.001 4.166-3.389 7.555-7.555 7.555m-70.891-27.749h-98.51c-4.143 0-7.5 3.358-7.5 7.5s3.357 7.5 7.5 7.5h98.51c4.143 0 7.5-3.358 7.5-7.5s-3.357-7.5-7.5-7.5"/><path d="M242.084 289.236c4.143 0 7.5-3.358 7.5-7.5s-3.357-7.5-7.5-7.5h-62.688c-4.143 0-7.5 3.358-7.5 7.5s3.357 7.5 7.5 7.5zm0 28.498h-62.688c-4.143 0-7.5 3.358-7.5 7.5s3.357 7.5 7.5 7.5h62.688c4.143 0 7.5-3.358 7.5-7.5s-3.357-7.5-7.5-7.5"/></svg>